<?xml version="1.0" encoding="UTF-8" standalone="no"?>
<svg id="Layer_1" xmlns:rdf="http://www.w3.org/1999/02/22-rdf-syntax-ns#" xmlns="http://www.w3.org/2000/svg" xml:space="preserve" overflow="visible" height="718.08" viewBox="0 0 249.99885 249.99901" width="718.08" version="1.0" enable-background="new 0 0 250.668 250.668" xmlns:cc="http://creativecommons.org/ns#" xmlns:dc="http://purl.org/dc/elements/1.1/"><metadata id="metadata336"><rdf:RDF><cc:Work rdf:about=""><dc:format>image/svg+xml</dc:format><dc:type rdf:resource="http://purl.org/dc/dcmitype/StillImage"/><dc:title/></cc:Work></rdf:RDF></metadata><g id="g3" transform="matrix(0.99999544,0,0,1,-0.33400284,-0.33499999)"><path id="path5" fill="#e0af35" d="m125.34,250.33c69.031,0,125-55.963,125-125-0.01-69.027-55.97-125-125-125-69.041-0.001-125.01,55.967-125.01,125,0,69.038,55.965,125,125,125z"/><path id="path7" fill="#FFF" d="m125.34,246.58c66.999,0,121.32-54.313,121.32-121.32,0-67.006-54.322-121.33-121.32-121.33-67.005,0-121.32,54.32-121.32,121.33,0,67.009,54.317,121.32,121.32,121.32z"/><path id="path9" fill="#e0af35" d="m125.34,221.33c53.052,0,96.068-43.012,96.068-96.068,0-53.059-43.017-96.066-96.068-96.066-53.059,0-96.068,43.007-96.068,96.066,0,53.056,43.01,96.068,96.068,96.068z"/><path id="path11" fill="#124471" d="m125.34,218.96c51.746,0,93.699-41.95,93.699-93.698,0-51.749-41.953-93.7-93.699-93.7-51.744,0-93.701,41.951-93.701,93.7,0.001,51.748,41.957,93.698,93.701,93.698z"/><path id="path157" fill="#94693c" d="m78.36,176.56c0.115-0.238,0.221-0.479,0.327-0.728"/><path id="path175" fill="#94693c" d="m98.76,104.46c-0.522-0.523-0.234-1.562,0.288-2.088l-0.288,2.088"/><path id="path189" d="m91.019,95.56,2.191-2.884c-0.519,1.15-1.041,2.138-2.191,2.884m5.66,4.565,0.867-1.907-0.177,1.214-0.69,0.693"/><polygon id="polygon245" stroke-linejoin="round" stroke="#000" points="20.557,151.92,20.557,151.92,23.984,156.77,22.979,159.73" stroke-width="0.0738"/><polygon id="polygon247" stroke-linejoin="round" stroke="#000" points="20.554,151.92,20.554,151.92,20.482,157.86,22.979,159.73" stroke-width="0.0738" fill="#FFF"/><polygon id="polygon249" stroke-linejoin="round" stroke="#000" points="14.806,159.62,14.806,159.62,20.482,157.86,22.979,159.73" stroke-width="0.0738"/><polygon id="polygon251" stroke-linejoin="round" stroke="#000" points="14.806,159.62,14.806,159.62,20.433,161.53,22.979,159.73" stroke-width="0.0738" fill="#FFF"/><polygon id="polygon253" stroke-linejoin="round" stroke="#000" points="20.352,167.47,20.352,167.47,20.433,161.53,22.979,159.73" stroke-width="0.0738"/><polygon id="polygon255" stroke-linejoin="round" stroke="#000" points="20.352,167.47,20.352,167.47,23.909,162.71,22.979,159.73" stroke-width="0.0738" fill="#FFF"/><polygon id="polygon257" stroke-linejoin="round" stroke="#000" points="29.529,164.62,29.529,164.62,23.909,162.71,22.979,159.73" stroke-width="0.0738"/><polygon id="polygon259" stroke-linejoin="round" stroke="#000" points="29.529,164.62,29.529,164.62,26.104,159.77,22.979,159.73" stroke-width="0.0738" fill="#FFF"/><polygon id="polygon261" stroke-linejoin="round" stroke="#000" points="29.661,155.01,29.661,155.01,26.104,159.77,22.979,159.73" stroke-width="0.0738"/><polygon id="polygon263" stroke-linejoin="round" stroke="#000" points="29.661,155.01,29.661,155.01,23.984,156.77,22.979,159.73" stroke-width="0.0738" fill="#FFF"/><polygon id="polygon265" stroke-linejoin="round" stroke="#000" points="231.14,148.97,231.14,148.97,231.44,154.9,229,156.85" stroke-width="0.0738"/><polygon id="polygon267" stroke-linejoin="round" stroke="#000" points="231.14,148.97,231.14,148.97,227.89,153.94,229,156.85" stroke-width="0.0738" fill="#FFF"/><polygon id="polygon269" stroke-linejoin="round" stroke="#000" points="222.16,152.37,222.16,152.37,227.9,153.94,229,156.85" stroke-width="0.0738"/><polygon id="polygon271" stroke-linejoin="round" stroke="#000" points="222.16,152.37,222.16,152.37,225.88,157.01,229,156.85" stroke-width="0.0738" fill="#FFF"/><polygon id="polygon273" stroke-linejoin="round" stroke="#000" points="222.62,161.97,222.62,161.97,225.88,157.01,229,156.85" stroke-width="0.0738"/><polygon id="polygon275" stroke-linejoin="round" stroke="#000" points="222.62,161.97,222.62,161.97,228.18,159.87,229,156.85" stroke-width="0.0738" fill="#FFF"/><polygon id="polygon277" stroke-linejoin="round" stroke="#000" points="231.9,164.5,231.9,164.5,228.18,159.87,229,156.85" stroke-width="0.0738"/><polygon id="polygon279" stroke-linejoin="round" stroke="#000" points="231.9,164.5,231.9,164.5,231.61,158.56,229,156.85" stroke-width="0.0738" fill="#FFF"/><polygon id="polygon281" stroke-linejoin="round" stroke="#000" points="237.16,156.46,237.16,156.46,231.61,158.56,229,156.85" stroke-width="0.0738"/><polygon id="polygon283" stroke-linejoin="round" stroke="#000" points="237.16,156.46,237.16,156.46,231.44,154.9,229,156.85" stroke-width="0.0738" fill="#FFF"/><path id="path331" fill="#000" d="m35.765,177.06c0.21,0.397,0.413,0.808,0.651,1.181,0.245,0.376,0.532,0.726,0.805,1.078l-4.275,2.759c-0.828,0.534-2.076,1.3-2.777,1.942-0.649,0.61-1.036,1.034-1.213,1.916-0.143,0.769,0.032,1.472,0.462,2.133,0.901,1.4,1.899,1.82,3.547,1.502,0.838-0.154,2.553-1.261,3.291-1.74l4.56-2.944c0.098,0.218,0.219,0.442,0.344,0.633,0.125,0.193,0.277,0.398,0.434,0.571l-5.354,3.463c-1.748,1.06-3.303,2.088-5.397,1.221-1.111-0.437-1.992-1.337-2.632-2.33-1.177-1.816-1.877-4.161-0.283-5.981,0.483-0.547,1.094-1.046,1.697-1.435l6.14-3.969m7.197,10.894,1.147,1.354c-0.486,3.733-0.852,7.529-1.423,11.318l6.408-5.399c0.121,0.203,0.271,0.403,0.42,0.583,0.151,0.175,0.327,0.358,0.503,0.515l-9.398,7.918-0.973-1.18c0.433-3.077,0.869-5.977,1.196-8.898l0.305-2.806-6.628,5.583c-0.139-0.192-0.271-0.4-0.422-0.582-0.15-0.178-0.338-0.344-0.501-0.515l9.366-7.891m8.817,10.013c0.292,0.346,0.568,0.696,0.888,1.015,0.317,0.31,0.675,0.591,1.016,0.882l-8.659,8.71c-0.292-0.336-0.572-0.688-0.892-1.004-0.316-0.315-0.671-0.595-1.015-0.884l8.662-8.719m-0.638,16.147c-0.315-0.321-0.618-0.654-0.96-0.945-0.336-0.294-0.709-0.547-1.071-0.814l7.193-8.337c-0.961-0.831-1.899-1.474-2.684-1.987,0.188-0.165,0.394-0.32,0.568-0.522,0.159-0.188,0.287-0.416,0.422-0.629l6.983,6.022c-0.191,0.171-0.394,0.326-0.558,0.516-0.177,0.202-0.298,0.425-0.437,0.641-0.717-0.785-1.438-1.572-2.261-2.286l-7.195,8.341m16.876-2.583c-0.175,0.182-0.38,0.367-0.528,0.57-0.147,0.205-0.257,0.456-0.376,0.677-0.803-0.756-1.701-1.583-3.204-2.632l-2.262,3.119,1.51,1.094c0.65,0.472,1.285,0.848,1.875,1.159-0.174,0.186-0.373,0.369-0.521,0.573-0.146,0.206-0.263,0.45-0.38,0.677-0.483-0.461-1.038-0.95-1.688-1.423l-1.512-1.094-2.669,3.682c1.486,1.06,2.527,1.704,3.497,2.229-0.177,0.18-0.376,0.367-0.526,0.571-0.145,0.202-0.262,0.453-0.379,0.673l-5.525-4.002,7.162-9.877,5.526,4.004m6.561,3.991c3.243,2.042,3.274,5.138,1.808,7.68-2.024,3.506-5.693,4.161-8.874,2.326l-4.338-2.51,6.101-10.562,5.303,3.066zm-8.557,7.944,1.313,0.76c2.141,1.235,4.39,1.105,6.488-2.52,1.679-2.916,0.963-4.861-1.222-6.122l-1.518-0.881-5.061,8.763m35.452,11.475c-0.72,1.247-1.372,2.248-1.938,3.399-0.278-0.075-0.538-0.155-0.821-0.214-0.28-0.057-0.564-0.073-0.852-0.109l7.385-11.213c0.227,0.073,0.434,0.134,0.661,0.176,0.228,0.047,0.444,0.072,0.677,0.079l2.544,13.17c-0.501-0.129-0.983-0.278-1.497-0.376-0.508-0.1-1.01-0.145-1.529-0.206-0.153-1.382-0.292-2.65-0.536-3.916l-4.094-0.79zm3.895-0.366-0.77-4.399-2.446,3.782,3.216,0.617m10.816,6.315c-0.441-0.082-0.88-0.173-1.328-0.218-0.443-0.042-0.899-0.028-1.346-0.031l1.02-10.974c-1.268-0.116-2.401-0.098-3.342-0.054,0.058-0.246,0.139-0.495,0.16-0.765,0.025-0.244-0.007-0.501-0.019-0.753l9.184,0.852c-0.058,0.248-0.136,0.489-0.156,0.742-0.026,0.271,0.003,0.523,0.017,0.779-1.045-0.227-2.082-0.448-3.171-0.552l-1.019,10.974m57.45-14.122c0.2,1.424,0.299,2.618,0.558,3.874-0.266,0.114-0.522,0.199-0.776,0.332-0.259,0.13-0.498,0.285-0.74,0.435l-1.038-13.389c0.224-0.076,0.42-0.156,0.632-0.263,0.204-0.104,0.389-0.216,0.581-0.353l10.084,8.848c-0.479,0.204-0.951,0.384-1.415,0.614-0.461,0.239-0.89,0.516-1.332,0.778-0.97-0.997-1.854-1.913-2.831-2.765l-3.723,1.889zm2.864-2.677-3.309-3.003,0.384,4.487,2.925-1.484m10.609-15.265c0.227-0.106,0.464-0.202,0.674-0.345,0.209-0.143,0.397-0.333,0.587-0.504,3.164,3.676,5.695,6.675,8.197,9.286-0.433,0.251-0.868,0.479-1.281,0.763-0.411,0.276-0.756,0.575-1.15,0.888-1.714-2.28-3.55-4.352-5.319-6.48,0.413,3.033,0.834,6.054,1.343,9.068-0.209,0.097-0.406,0.208-0.563,0.375-2.336-1.4-5.067-2.902-7.771-4.465,1.428,2.841,2.589,5.059,3.949,7.164-0.258,0.137-0.512,0.238-0.751,0.403-0.235,0.159-0.411,0.344-0.632,0.531-1.484-3.34-3.339-7.101-5.379-11.195,0.229-0.11,0.454-0.197,0.658-0.338,0.203-0.141,0.383-0.324,0.57-0.493,2.651,1.603,5.386,3.121,8.136,4.655-0.358-2.828-0.675-6.01-1.268-9.313m8.6-7.133c0.139,0.213,0.269,0.45,0.434,0.641,0.167,0.193,0.379,0.362,0.57,0.531-0.921,0.599-1.943,1.281-3.307,2.5l2.505,2.925,1.418-1.214c0.609-0.521,1.12-1.056,1.564-1.557,0.134,0.217,0.271,0.451,0.433,0.647,0.17,0.187,0.382,0.359,0.573,0.522-0.568,0.366-1.168,0.786-1.779,1.313l-1.415,1.215,2.96,3.455c1.375-1.204,2.238-2.064,2.98-2.889,0.134,0.217,0.27,0.455,0.43,0.646,0.165,0.188,0.382,0.354,0.571,0.527l-5.182,4.44-7.938-9.268,5.183-4.434m1.054-0.96,2.662-2.732c0.591-0.601,1.479-1.563,2.282-1.825,1.1-0.354,2.053-0.18,2.921,0.673,1.26,1.226,1.267,2.808,0.359,4.249,1.914,0.497,3.874,0.856,5.815,1.247l1.286,0.279c-0.404,0.361-0.818,0.705-1.204,1.106-0.379,0.382-0.714,0.802-1.062,1.214l-4.185-1.103c-0.53-0.151-1.47-0.363-2.236-0.556l-0.086,0.091,4.114,4.015c-0.34,0.295-0.687,0.578-1.003,0.901-0.313,0.316-0.585,0.676-0.869,1.02l-8.794-8.579zm6.006,2.105c1.439-1.221,1.452-2.512,0.132-3.802-0.182-0.173-0.389-0.353-0.709-0.561-1.259-0.834-2.097,0.227-2.861,1.007l3.438,3.356m1.237-9.803c0.32-0.316,0.646-0.625,0.938-0.967,0.286-0.347,0.53-0.724,0.788-1.089l9.413,7.897c-0.315,0.323-0.641,0.629-0.934,0.973-0.287,0.341-0.533,0.722-0.791,1.087l-9.414-7.901m17.25-5.875,1.031,1.214c-0.178,1.2-0.735,2.359-1.431,3.336-2.224,3.127-5.834,4.115-8.821,1.985-3.811-2.709-3.679-6.571-1.414-9.749,0.689-0.963,1.767-1.953,2.835-2.469,0.401,0.483,0.836,0.927,1.263,1.404l-0.144,0.202c-1.172-0.023-2.393,0.521-3.07,1.47-1.721,2.42-0.099,5.049,2.046,6.574,2.496,1.777,5.12,1.797,6.721-0.448,0.644-0.907,0.925-2.292,0.765-3.389l0.219-0.13m0.783-4.582c0.962,1.068,1.711,2.004,2.626,2.903-0.155,0.238-0.318,0.456-0.456,0.708-0.146,0.249-0.249,0.515-0.374,0.777l-8.33-10.532c0.142-0.184,0.261-0.364,0.376-0.567,0.11-0.206,0.204-0.402,0.284-0.622l13.306,1.719c-0.282,0.438-0.576,0.849-0.83,1.302-0.254,0.451-0.452,0.915-0.677,1.392-1.352-0.293-2.602-0.558-3.888-0.722l-2.037,3.642zm0.889-3.817-4.427-0.646,2.819,3.509,1.608-2.863m-213.34-36.34-0.192-2.51c3.65-3.902,7.208-7.979,11.011-11.868l-11.859,0.919c0.025-0.334,0.021-0.691-0.003-1.021-0.024-0.333-0.078-0.683-0.156-1.009l17.387-1.347,0.143,2.155c-3.04,3.192-5.944,6.173-8.741,9.271l-2.674,2.99,12.268-0.95c0,0.333-0.025,0.688,0,1.017,0.028,0.333,0.106,0.684,0.157,1.013l-17.341,1.343m11.287-23.119c1.86,0.844,3.367,1.629,5.067,2.275-0.068,0.404-0.153,0.777-0.192,1.182-0.039,0.409-0.028,0.813-0.042,1.222l-16.835-8.92c0.083-0.327,0.136-0.628,0.167-0.952,0.036-0.33,0.039-0.635,0.018-0.969l18.265-5.365c-0.12,0.731-0.261,1.43-0.333,2.163-0.07,0.735-0.063,1.452-0.083,2.19-1.93,0.402-3.702,0.769-5.462,1.289l-0.57,5.891zm-1.03-5.462-6.113,1.684,5.666,2.946,0.447-4.63m9.684-14.444c-0.207,0.607-0.433,1.203-0.586,1.817-0.156,0.619-0.238,1.251-0.341,1.882l-15.166-3.785c-0.439,1.753-0.653,3.349-0.802,4.673-0.331-0.136-0.658-0.295-1.029-0.389-0.346-0.083-0.708-0.098-1.066-0.134l3.174-12.702c0.333,0.136,0.661,0.295,1.005,0.383,0.37,0.09,0.735,0.104,1.091,0.14-0.538,1.409-1.069,2.822-1.451,4.327l15.171,3.79m-14.342-12.57c0.271-0.583,0.562-1.147,0.781-1.744s0.37-1.222,0.539-1.836l16.362,6.041c-0.27,0.582-0.561,1.15-0.783,1.747-0.217,0.597-0.366,1.215-0.537,1.833l-16.362-6.041m22.998-8.206c-2.676,4.943-7.386,6.697-12.462,3.952-4.45-2.411-6.293-7.602-3.277-13.169,3.452-6.371,8.958-5.817,12.439-3.963,4.369,2.335,6.266,7.698,3.3,13.18zm-9.802,0.59c2.904,1.572,6.704,1.923,8.521-1.433,1.866-3.44-0.745-6.846-4.452-8.858-2.888-1.562-6.925-2.009-8.74,1.341-1.682,3.108-0.337,6.236,4.671,8.95m2.15-22.257,1.605-1.938c5.337-0.271,10.731-0.72,16.171-0.875l-9.169-7.587c0.253-0.224,0.497-0.476,0.711-0.735,0.208-0.255,0.415-0.54,0.589-0.831l13.434,11.125-1.399,1.647c-4.407,0.177-8.568,0.302-12.728,0.586l-4.001,0.284,9.478,7.847c-0.23,0.238-0.498,0.475-0.703,0.739-0.217,0.247-0.4,0.552-0.593,0.826l-13.395-11.088m24.17-8.748c0.75,1.896,1.282,3.508,2.054,5.158-0.328,0.246-0.648,0.456-0.957,0.714-0.311,0.271-0.589,0.569-0.883,0.852l-5.88-18.129c0.283-0.171,0.532-0.348,0.784-0.564,0.253-0.217,0.469-0.432,0.686-0.686l16.853,8.859c-0.593,0.437-1.187,0.842-1.744,1.318-0.565,0.475-1.054,0.998-1.583,1.512-1.665-1.05-3.191-2.023-4.815-2.875l-4.515,3.841zm3.061-4.645-5.564-3.043,2.02,6.058,3.544-3.015m13.263-3.607c1.871-1.18,3.367-2.337,4.733-3.41,0.146,0.326,0.284,0.689,0.477,0.994,0.188,0.298,0.456,0.583,0.688,0.852l-8.141,5.149-9.251-14.628c0.561-0.298,1.14-0.572,1.68-0.916,0.537-0.333,1.032-0.739,1.545-1.126l8.269,13.085m16.32-21.575c-0.963-1.069-2.181-1.52-3.528-0.988-1.869,0.732-2.224,1.989-1.692,3.338,1.257,3.196,8.216-0.225,10.349,5.198,1.191,3.028-0.56,6.228-4.227,7.669-1.3,0.512-2.816,0.753-4.208,0.476-0.106-1.101-0.238-2.199-0.497-3.274l0.45-0.174c0.997,1.495,2.657,1.96,4.29,1.318,1.463-0.576,2.442-1.915,1.797-3.547-1.484-3.789-7.999,0.359-10.237-5.345-1.069-2.719-0.085-5.706,3.512-7.119,1.704-0.671,3.469-0.625,4.182-0.336,0.017,0.873,0.085,1.747,0.168,2.642l-0.359,0.142m14.178-7.457c0.04,0.354,0.061,0.745,0.149,1.087,0.089,0.348,0.257,0.695,0.394,1.029-1.55,0.188-3.273,0.426-5.777,1.118l1.368,5.292,2.556-0.658c1.108-0.283,2.092-0.646,2.972-1,0.039,0.355,0.06,0.745,0.151,1.094,0.086,0.34,0.254,0.692,0.396,1.022-0.944,0.113-1.978,0.273-3.084,0.561l-2.561,0.657,1.611,6.254c2.503-0.672,4.145-1.222,5.596-1.812,0.039,0.359,0.06,0.746,0.149,1.094,0.09,0.345,0.255,0.695,0.395,1.023l-9.378,2.421-4.313-16.766,9.376-2.416m20.04,11.938-0.317,2.236c-1.426,0.945-3.188,1.449-4.883,1.634-5.407,0.596-9.866-2.287-10.438-7.464-0.729-6.596,3.49-10.105,8.999-10.713,1.667-0.181,3.737,0.025,5.29,0.671-0.132,0.887-0.188,1.757-0.295,2.664l-0.351,0.042c-1.087-1.265-2.808-2.046-4.449-1.864-4.197,0.462-5.446,4.669-5.039,8.382,0.476,4.318,2.937,7.116,6.825,6.69,1.57-0.177,3.295-1.181,4.315-2.393l0.343,0.115m4.023-14.559c0.632,0.092,1.262,0.209,1.896,0.248,0.637,0.043,1.274,0.004,1.913-0.006l-0.461,7.208c-0.093,1.396-0.271,3.472-0.13,4.808,0.147,1.257,0.301,2.056,1.161,3.003,0.76,0.81,1.704,1.204,2.819,1.271,2.362,0.156,3.683-0.625,4.712-2.776,0.527-1.09,0.715-3.981,0.794-5.224l0.491-7.688c0.325,0.071,0.678,0.121,1.014,0.139,0.324,0.021,0.683,0.017,1.016-0.011l-0.577,9.033c-0.259,2.891-0.406,5.529-3.159,7.187-1.433,0.903-3.208,1.144-4.88,1.042-3.072-0.195-6.333-1.375-7.063-4.734-0.211-1.008-0.269-2.13-0.204-3.146l0.658-10.354m21.394,2.042,5.271,1.246c1.163,0.277,2.977,0.654,3.886,1.449,1.233,1.073,1.717,2.364,1.319,4.047-0.576,2.422-2.495,3.587-4.917,3.537,0.801,2.698,1.8,5.333,2.739,7.982l0.598,1.765c-0.73-0.224-1.453-0.473-2.22-0.653-0.742-0.182-1.505-0.281-2.255-0.406l-1.714-5.89c-0.217-0.753-0.638-2.057-0.961-3.124l-0.173-0.043-1.881,7.942c-0.604-0.202-1.206-0.418-1.823-0.564-0.623-0.149-1.25-0.22-1.886-0.316l4.017-16.972zm1.827,8.845c2.536,0.864,4.116-0.067,4.719-2.617,0.084-0.345,0.147-0.721,0.169-1.264,0.09-2.149-1.811-2.391-3.319-2.746l-1.569,6.627m14.915-4.31c0.579,0.262,1.146,0.554,1.744,0.766,0.599,0.221,1.223,0.363,1.836,0.534l-5.94,16.391c-0.584-0.261-1.156-0.55-1.753-0.769-0.597-0.216-1.223-0.361-1.835-0.529l5.948-16.393m7.519,22.128c-0.545-0.327-1.08-0.675-1.654-0.958-0.567-0.278-1.171-0.49-1.769-0.721l6.894-14.037c-1.619-0.795-3.137-1.342-4.399-1.762,0.202-0.297,0.426-0.582,0.599-0.93,0.154-0.312,0.244-0.67,0.353-1.009l11.751,5.771c-0.204,0.295-0.429,0.582-0.585,0.902-0.17,0.34-0.258,0.692-0.368,1.033-1.267-0.817-2.536-1.637-3.922-2.322l-6.9,14.033m13.024-0.888c0.271-3.781,0.817-7.563,1.168-11.415,0.602,0.471,1.191,0.962,1.819,1.396,0.633,0.429,1.303,0.791,1.964,1.181-0.22,1.542-0.509,3.313-0.764,4.954-0.233,1.566-0.428,2.941-0.396,3.423,1.47-0.443,5.406-2.868,7.42-4.107,0.309,0.27,0.627,0.521,0.981,0.759,0.343,0.231,0.691,0.441,1.056,0.625-3.346,1.659-6.652,3.128-9.812,4.917l-4.428,6.491c-0.493-0.401-0.977-0.824-1.498-1.179-0.526-0.361-1.094-0.652-1.647-0.973l4.137-6.072m15.365,15.01c-1.861,0.837-3.446,1.449-5.058,2.29-0.263-0.317-0.483-0.628-0.763-0.927-0.275-0.297-0.59-0.557-0.886-0.841l17.839-6.696c0.185,0.275,0.376,0.513,0.601,0.751,0.228,0.246,0.455,0.448,0.716,0.657l-8.075,17.239c-0.47-0.575-0.896-1.147-1.4-1.683-0.506-0.543-1.044-1.009-1.582-1.513,0.975-1.714,1.874-3.282,2.65-4.945l-4.042-4.332zm4.775,2.848,2.787-5.692-5.961,2.287,3.174,3.405m9.888,23.782c-1.776-1.573-3.437-3.191-4.655-5.067-2.923-4.498-3.265-9.977,1.745-13.229,5.312-3.445,10.538-1.32,13.734,3.603,1.191,1.833,1.91,3.786,2.032,5.984-0.874,0.142-1.757,0.411-2.538,0.798l-0.193-0.297c0.794-1.911,0.542-3.927-0.551-5.61-2.313-3.563-6.665-3.221-10.249-0.896-3.713,2.411-4.708,5.721-2.599,8.963,0.69,1.067,1.481,1.643,2.12,1.958l4.979-3.241c0.306,0.56,0.585,1.135,0.936,1.668,0.345,0.533,0.756,1.029,1.143,1.534l-5.904,3.832m20.36,4.904c-0.348,0.097-0.727,0.185-1.052,0.328-0.331,0.148-0.644,0.373-0.948,0.567-0.443-1.505-0.969-3.16-2.073-5.507l-4.989,2.226,1.081,2.416c0.468,1.042,0.986,1.959,1.486,2.761-0.343,0.101-0.725,0.186-1.052,0.335-0.322,0.142-0.642,0.369-0.94,0.561-0.272-0.908-0.604-1.907-1.076-2.951l-1.07-2.412-5.892,2.634c1.083,2.359,1.904,3.886,2.726,5.217-0.344,0.104-0.728,0.189-1.054,0.331-0.321,0.149-0.636,0.372-0.942,0.563l-3.957-8.844,15.802-7.066,3.959,8.841m1.911,4.79,0.652,2.43c-2.859,4.512-5.606,9.177-8.614,13.708l11.481-3.107c0.04,0.332,0.107,0.687,0.193,1,0.086,0.319,0.206,0.66,0.34,0.965l-16.84,4.56-0.54-2.09c2.396-3.705,4.698-7.17,6.865-10.736l2.079-3.429-11.882,3.209c-0.06-0.324-0.102-0.683-0.191-1.001-0.089-0.319-0.228-0.651-0.338-0.963l16.79-4.537m-8.177,36.228-2.231-0.361c-0.912-1.452-1.38-3.217-1.529-4.917-0.483-5.416,2.498-9.819,7.689-10.28,6.609-0.582,10.024,3.707,10.518,9.225,0.149,1.669-0.107,3.735-0.784,5.276-0.882-0.152-1.757-0.228-2.661-0.352l-0.032-0.351c1.283-1.059,2.101-2.771,1.956-4.415-0.37-4.201-4.551-5.54-8.271-5.208-4.33,0.382-7.179,2.777-6.833,6.674,0.14,1.573,1.114,3.324,2.303,4.369l-0.125,0.34m4.047,7.06c3.397-1.689,6.93-3.145,10.429-4.805-0.101,0.761-0.229,1.518-0.273,2.275-0.054,0.763-0.027,1.527-0.027,2.291-1.439,0.598-3.111,1.248-4.653,1.862-1.467,0.596-2.748,1.123-3.148,1.404,1.127,1.044,5.22,3.192,7.313,4.297-0.077,0.404-0.129,0.805-0.155,1.239-0.03,0.407-0.03,0.813-0.009,1.222-3.126-2.036-6.07-4.139-9.217-5.952l-7.84-0.504c0.092-0.631,0.211-1.264,0.257-1.9,0.033-0.632,0.002-1.271-0.008-1.906l7.331,0.477m-104.21,98.403c-0.034,0.249-0.092,0.521-0.092,0.771,0.002,0.252,0.06,0.521,0.093,0.769-1.094-0.14-2.306-0.28-4.139-0.246l0.004,3.853,1.863-0.003c0.804,0,1.538-0.067,2.197-0.163-0.03,0.253-0.083,0.518-0.083,0.771,0.003,0.252,0.051,0.519,0.09,0.771-0.662-0.09-1.398-0.16-2.202-0.159l-1.867,0.004,0.005,4.547c1.825-0.016,3.046-0.106,4.138-0.252-0.037,0.248-0.089,0.519-0.089,0.771,0.001,0.248,0.053,0.521,0.088,0.767l-6.821,0.01-0.012-12.2,6.827-0.011m-34.627,7.626c-0.417-0.168-0.829-0.343-1.258-0.476-0.426-0.13-0.875-0.207-1.313-0.3l3.182-10.552c-1.219-0.364-2.333-0.573-3.264-0.717,0.105-0.229,0.234-0.456,0.31-0.717,0.073-0.234,0.092-0.493,0.131-0.741l8.831,2.661c-0.105,0.23-0.231,0.452-0.301,0.695-0.08,0.263-0.101,0.514-0.138,0.769-0.979-0.431-1.951-0.854-2.999-1.173l-3.181,10.551m57.213,2.341c-3.911,0.848-7.046-0.878-7.92-4.896-0.762-3.522,1.186-6.929,5.593-7.885,5.043-1.094,7.301,2.137,7.916,4.877,0.768,3.447-1.25,6.963-5.589,7.904zm-4.866-5.02c0.498,2.3,2.073,4.512,4.727,3.937,2.727-0.59,3.353-3.581,2.721-6.518-0.499-2.283-2.133-4.673-4.784-4.097-2.458,0.534-3.525,2.714-2.664,6.678m-10.33-2.754c-0.403-0.949-1.123-1.541-2.161-1.497-1.441,0.059-1.978,0.829-1.932,1.871,0.102,2.461,5.63,1.771,5.805,5.954,0.1,2.333-1.838,4.096-4.665,4.213-1.001,0.044-2.088-0.147-2.969-0.661,0.186-0.772,0.354-1.55,0.431-2.34l0.346-0.012c0.326,1.247,1.343,1.952,2.603,1.9,1.128-0.05,2.107-0.729,2.052-1.989-0.119-2.919-5.514-1.631-5.696-6.026-0.088-2.098,1.279-3.895,4.053-4.009,1.313-0.058,2.501,0.389,2.916,0.75-0.192,0.597-0.35,1.209-0.503,1.834l-0.28,0.012m-46.682-6.518c0.034-1.031-0.369-1.871-1.328-2.271-1.331-0.555-2.143-0.083-2.541,0.88-0.947,2.275,4.355,3.983,2.748,7.849-0.896,2.157-3.395,2.938-6.007,1.851-0.926-0.384-1.831-1.016-2.413-1.854,0.495-0.622,0.976-1.255,1.379-1.938l0.318,0.136c-0.231,1.269,0.393,2.337,1.557,2.821,1.043,0.431,2.217,0.229,2.699-0.937,1.125-2.697-4.309-3.806-2.618-7.868,0.806-1.938,2.803-2.99,5.366-1.923,1.215,0.502,2.103,1.408,2.326,1.911-0.425,0.459-0.827,0.948-1.23,1.45l-0.256-0.107m71.301,3.837,4.2-1.496,0.559,1.229-4.308,1.534,1.99,5.588-2.262,0.806-4.124-11.58,6.569-2.34,0.559,1.229-4.416,1.573,1.233,3.457z"/><path id="path3110" fill="#FFF" d="m121.39,174.02c-15.203-3.8941-37.028-14.811-45.717-22.869-8.0458-7.4604-25.739-33.839-25.739-38.374,0-5.4024,7.7375-2.7886,9.5943,3.241,3.3189,10.778,25.653,34.46,37.248,39.496,39.988,17.369,68.404,14.385,87.186-9.1544,8.4099-10.54,14.277-12.205,14.277-4.0512,0,2.9661-0.93651,5.3929-2.0811,5.3929s-7.8543,5.3003-14.91,11.778c-9.7893,8.9875-15.685,12.17-24.882,13.43-6.6288,0.90858-14.783,2.1515-18.121,2.762-3.3379,0.61053-10.923-0.13313-16.855-1.6526zm12.134-26.631c-5.1907-1.1796-11.39-1.5645-13.776-0.85534-7.5903,2.2558-10.9-5.2505-8.9144-20.218,1.0061-7.5841,2.7556-14.362,3.8877-15.062,3.4998-2.163,5.4512,6.8956,2.6236,12.179-1.4724,2.7512-1.954,6.8866-1.0703,9.1896,1.912,4.9825,17.561,9.8044,25.273,7.7875,3.7547-0.98188,5.4582-0.11654,5.4582,2.7727,0,5.8597-2.6152,6.6756-13.482,4.2061zm17.341-53.918c-2.0327-3.289,4.0233-8.2346,7.4729-6.1026,1.1831,0.7312,2.1511,3.0779,2.1511,5.215,0,4.5757-6.9485,5.2165-9.624,0.88762zm-67.37-5.325c-0.99644-1.6123-0.56708-4.176,0.95415-5.6973,3.4019-3.4019,8.6287-0.52883,8.6287,4.7431,0,4.5398-6.9397,5.2308-9.5828,0.95414z"/></g></svg>
